<svg xmlns="http://www.w3.org/2000/svg" viewBox="0 0 24 24" role="img" aria-label="GitHub">
  <path fill="#fffdf0" d="M12 0.5C5.65 0.5 0.5 5.65 0.5 12c0 5.08 3.29 9.39 7.86 10.92 0.58 0.1 0.79-0.25 0.79-0.56v-2.02c-3.2 0.7-3.88-1.54-3.88-1.54-0.52-1.34-1.28-1.7-1.28-1.7-1.05-0.72 0.08-0.71 0.08-0.71 1.16 0.08 1.77 1.19 1.77 1.19 1.03 1.76 2.7 1.25 3.36 0.96 0.1-0.75 0.4-1.25 0.73-1.54-2.55-0.29-5.23-1.27-5.23-5.67 0-1.25 0.45-2.27 1.18-3.07-0.12-0.29-0.51-1.45 0.11-3.03 0 0 0.96-0.31 3.16 1.17A10.98 10.98 0 0 1 12 6.01c0.98 0 1.95 0.13 2.87 0.39 2.19-1.48 3.15-1.17 3.15-1.17 0.63 1.58 0.23 2.74 0.12 3.03 0.74 0.8 1.18 1.82 1.18 3.07 0 4.41-2.69 5.38-5.25 5.66 0.41 0.35 0.78 1.05 0.78 2.13v3.24c0 0.31 0.21 0.67 0.79 0.56A11.51 11.51 0 0 0 23.5 12C23.5 5.65 18.35 0.5 12 0.5Z"/>
</svg>
